Coordinates
nRows=10
nColumns=24

# SIMM Motion File Header:
name Coordinates
datacolumns 24
datarows 10
otherdata 1
range 0.40832999999999997000 0.41732999999999998000
endheader
time	pelvis_tx	pelvis_ty	pelvis_tz	pelvis_tilt	pelvis_list	pelvis_rotation	hip_flexion_r	hip_adduction_r	hip_rotation_r	knee_angle_r	ankle_angle_r	subtalar_angle_r	mtp_angle_r	hip_flexion_l	hip_adduction_l	hip_rotation_l	knee_angle_l	ankle_angle_l	subtalar_angle_l	mtp_angle_l	lumbar_extension	lumbar_bending	lumbar_rotation
      0.40832999999999997000	      0.33463700023642595000	      0.88341218555753431000	     -0.22653704330538485000	      2.70396349784347170000	     -4.05893628749386350000	      0.74153547981709356000	     -8.00900579679475830000	      7.20693101023860370000	      4.60996850510488620000	    -10.88857100355757100000	     16.10213355334724700000	     -0.00000000000001263841	     -0.00000000000010676794	     25.91313159055505700000	     -7.36469143011023770000	      9.69733953356568000000	    -26.25060689660415400000	      3.16351421197555860000	      0.00000000000001709977	      0.00000000000001375549	    -16.63003154964440000000	      5.03808376590183560000	     10.85076704172695400000
      0.40932999999999997000	      0.33590466885015224000	      0.88322479252937969000	     -0.22656407889117589000	      2.70618737977449660000	     -4.05553903678815250000	      0.72304121719296932000	     -8.13061662899859170000	      7.20074942207310540000	      4.61114700221459910000	    -10.84221143444433200000	     16.14433610050337400000	     -0.00000000000001268799	     -0.00000000000010737982	     25.91345096830780600000	     -7.34855818066630120000	      9.71017553228019810000	    -25.94496609365352300000	      3.06554041892521090000	      0.00000000000001722566	      0.00000000000001380535	    -16.61602250312493500000	      5.02561753504501580000	     10.93010992657743900000
      0.41032999999999997000	      0.33717233746387848000	      0.88303739950122506000	     -0.22659111447696695000	      2.70841126170552200000	     -4.05214178608244160000	      0.70454695456884386000	     -8.25222746120242690000	      7.19456783390760620000	      4.61232549932431280000	    -10.79585186533109500000	     16.18653864765950000000	     -0.00000000000001273757	     -0.00000000000010799170	     25.91377034606055900000	     -7.33242493122236460000	      9.72301153099471450000	    -25.63932529070289200000	      2.96756662587486590000	      0.00000000000001735155	      0.00000000000001385521	    -16.60201345660547300000	      5.01315130418819520000	     11.00945281142792400000
      0.41132999999999997000	      0.33844570222523324000	      0.88284774373231467000	     -0.22661622308271290000	      2.71184734314446140000	     -4.04782111215269860000	      0.68401373836211221000	     -8.37476176284272890000	      7.18710810132821450000	      4.61553545482581380000	    -10.75096312472192900000	     16.22769380202789700000	     -0.00000000000001279942	     -0.00000000000010865283	     25.91108845660110700000	     -7.31668767286732180000	      9.73162828579117090000	    -25.33845219861260000000	      2.87439045058253930000	      0.00000000000001747673	      0.00000000000001385768	    -16.58863258351604800000	      4.99873395433987970000	     11.09175515217922300000
      0.41232999999999997000	      0.33971906698658799000	      0.88265808796340439000	     -0.22664133168845885000	      2.71528342458340120000	     -4.04350043822295650000	      0.66348052215538045000	     -8.49729606448303090000	      7.17964836874882280000	      4.61874541032731580000	    -10.70607438411276400000	     16.26884895639629000000	     -0.00000000000001286127	     -0.00000000000010931396	     25.90840656714165400000	     -7.30095041451227810000	      9.74024504058762730000	    -25.03757910652230800000	      2.78121427529021270000	      0.00000000000001760192	      0.00000000000001386015	    -16.57525171042662400000	      4.98431660449156410000	     11.17405749293052300000
      0.41332999999999998000	      0.34099494029657523000	      0.88246735147871569000	     -0.22666568897816278000	      2.71919689897956160000	     -4.03881433318010870000	      0.64213859260844119000	     -8.62013953996506640000	      7.17167109112447940000	      4.62278283466478700000	    -10.66189813485754500000	     16.30996870334811200000	     -0.00000000000001289800	     -0.00000000000011005072	     25.90455075502241300000	     -7.28537018843938090000	      9.74707383730998700000	    -24.73906824728882400000	      2.69019789321265620000	      0.00000000000001772946	      0.00000000000001383611	    -16.56207835852933000000	      4.96911008703106290000	     11.25753600787897700000
      0.41432999999999998000	      0.34227332215519485000	      0.88227553427824879000	     -0.22668929495182466000	      2.72358776633294130000	     -4.03376279702415630000	      0.61998794972129723000	     -8.74329218928883560000	      7.16317626845518780000	      4.62764772783822660000	    -10.61843437695626800000	     16.35105304288335400000	     -0.00000000000001290963	     -0.00000000000011086312	     25.89952102024338700000	     -7.26994699464862930000	      9.75211467595825530000	    -24.44291962091213600000	      2.60134130434986230000	      0.00000000000001785937	      0.00000000000001378556	    -16.54911252782416400000	      4.95311440195837880000	     11.34219069702458400000
      0.41532999999999998000	      0.34355414145016283000	      0.88208263508358331000	     -0.22671217887166203000	      2.72841421671583720000	     -4.02834349778621800000	      0.59706082022441875000	     -8.86665879315444090000	      7.15415576085484070000	      4.63332480889806590000	    -10.57577019358230100000	     16.39237037505287700000	     -0.00000000000001291352	     -0.00000000000011168356	     25.89342959740870500000	     -7.25464436253963200000	      9.75538160736757650000	    -24.14932181764969200000	      2.51460261073451630000	      0.00000000000001798298	      0.00000000000001376653	    -16.53632065819243700000	      4.93633916528281880000	     11.42791854333312300000
      0.41632999999999998000	      0.34483739818147918000	      0.88188865389471938000	     -0.22673434073767487000	      2.73367625012824830000	     -4.02255643546629390000	      0.57335720411780577000	     -8.99023935156188080000	      7.14460956832343900000	      4.63981407784430470000	    -10.53390558473564200000	     16.43392069985667800000	     -0.00000000000001290967	     -0.00000000000011251205	     25.88627648651836600000	     -7.23946229211238900000	      9.75687463153795060000	    -23.85827483750149400000	      2.42998181236661860000	      0.00000000000001810030	      0.00000000000001377902	    -16.52370274963415000000	      4.91878437700438200000	     11.51471954680458900000
      0.41732999999999998000	      0.34612065491279548000	      0.88169467270585544000	     -0.22675650260368771000	      2.73893828354065990000	     -4.01676937314636890000	      0.54965358801119224000	     -9.11381990996931890000	      7.13506337579203630000	      4.64630334679054440000	    -10.49204097588898500000	     16.47547102466047900000	     -0.00000000000001290582	     -0.00000000000011334054	     25.87912337562802600000	     -7.22428022168514520000	      9.75836765570832480000	    -23.56722785735329900000	      2.34536101399872220000	      0.00000000000001821761	      0.00000000000001379151	    -16.51108484107586300000	      4.90122958872594430000	     11.60152055027605700000
